<svg id="visual" viewBox="0 0 960 540" width="960" height="540" xmlns="http://www.w3.org/2000/svg" xmlns:xlink="http://www.w3.org/1999/xlink" version="1.1"><rect x="0" y="0" width="960" height="540" fill="#001220"></rect><path d="M0 207L12.3 200.5C24.7 194 49.3 181 74 174.8C98.7 168.7 123.3 169.3 148 168C172.7 166.7 197.3 163.3 221.8 158.7C246.3 154 270.7 148 295.2 151.3C319.7 154.7 344.3 167.3 369 179.8C393.7 192.3 418.3 204.7 443 209.8C467.7 215 492.3 213 517 199C541.7 185 566.3 159 591 151.3C615.7 143.7 640.3 154.3 664.8 159.7C689.3 165 713.7 165 738.2 171.2C762.7 177.3 787.3 189.7 812 195.7C836.7 201.7 861.3 201.3 886 192.5C910.7 183.7 935.3 166.3 947.7 157.7L960 149L960 0L947.7 0C935.3 0 910.7 0 886 0C861.3 0 836.7 0 812 0C787.3 0 762.7 0 738.2 0C713.7 0 689.3 0 664.8 0C640.3 0 615.7 0 591 0C566.3 0 541.7 0 517 0C492.3 0 467.7 0 443 0C418.3 0 393.7 0 369 0C344.3 0 319.7 0 295.2 0C270.7 0 246.3 0 221.8 0C197.3 0 172.7 0 148 0C123.3 0 98.7 0 74 0C49.3 0 24.7 0 12.3 0L0 0Z" fill="#fa7268"></path><path d="M0 153L12.3 146.5C24.7 140 49.3 127 74 129.2C98.7 131.3 123.3 148.7 148 158.5C172.7 168.3 197.3 170.7 221.8 169.7C246.3 168.7 270.7 164.3 295.2 161.2C319.7 158 344.3 156 369 155.8C393.7 155.7 418.3 157.3 443 154.8C467.7 152.3 492.3 145.7 517 144.3C541.7 143 566.3 147 591 144C615.7 141 640.3 131 664.8 134.7C689.3 138.3 713.7 155.7 738.2 159.3C762.7 163 787.3 153 812 151C836.7 149 861.3 155 886 159C910.7 163 935.3 165 947.7 166L960 167L960 0L947.7 0C935.3 0 910.7 0 886 0C861.3 0 836.7 0 812 0C787.3 0 762.7 0 738.2 0C713.7 0 689.3 0 664.8 0C640.3 0 615.7 0 591 0C566.3 0 541.7 0 517 0C492.3 0 467.7 0 443 0C418.3 0 393.7 0 369 0C344.3 0 319.7 0 295.2 0C270.7 0 246.3 0 221.8 0C197.3 0 172.7 0 148 0C123.3 0 98.7 0 74 0C49.3 0 24.7 0 12.3 0L0 0Z" fill="#f36567"></path><path d="M0 112L12.3 118.7C24.7 125.3 49.3 138.7 74 146C98.7 153.3 123.3 154.7 148 153.3C172.7 152 197.3 148 221.8 145.5C246.3 143 270.7 142 295.2 134.2C319.7 126.3 344.3 111.7 369 108.2C393.7 104.7 418.3 112.3 443 122C467.7 131.7 492.3 143.3 517 143C541.7 142.7 566.3 130.3 591 122C615.7 113.7 640.3 109.3 664.8 111.3C689.3 113.3 713.7 121.7 738.2 119.7C762.7 117.7 787.3 105.3 812 105.8C836.7 106.3 861.3 119.7 886 121.5C910.7 123.3 935.3 113.7 947.7 108.8L960 104L960 0L947.7 0C935.3 0 910.7 0 886 0C861.3 0 836.7 0 812 0C787.3 0 762.7 0 738.2 0C713.7 0 689.3 0 664.8 0C640.3 0 615.7 0 591 0C566.3 0 541.7 0 517 0C492.3 0 467.7 0 443 0C418.3 0 393.7 0 369 0C344.3 0 319.7 0 295.2 0C270.7 0 246.3 0 221.8 0C197.3 0 172.7 0 148 0C123.3 0 98.7 0 74 0C49.3 0 24.7 0 12.3 0L0 0Z" fill="#eb5967"></path><path d="M0 99L12.3 98.3C24.7 97.7 49.3 96.3 74 98C98.7 99.7 123.3 104.3 148 107C172.7 109.7 197.3 110.3 221.8 108.7C246.3 107 270.7 103 295.2 99.3C319.7 95.7 344.3 92.3 369 96.8C393.7 101.3 418.3 113.7 443 112.2C467.7 110.7 492.3 95.3 517 87.5C541.7 79.7 566.3 79.3 591 85.8C615.7 92.3 640.3 105.7 664.8 114.5C689.3 123.3 713.7 127.7 738.2 126C762.7 124.3 787.3 116.7 812 106.7C836.7 96.7 861.3 84.3 886 88.7C910.7 93 935.3 114 947.7 124.5L960 135L960 0L947.7 0C935.3 0 910.7 0 886 0C861.3 0 836.7 0 812 0C787.3 0 762.7 0 738.2 0C713.7 0 689.3 0 664.8 0C640.3 0 615.7 0 591 0C566.3 0 541.7 0 517 0C492.3 0 467.7 0 443 0C418.3 0 393.7 0 369 0C344.3 0 319.7 0 295.2 0C270.7 0 246.3 0 221.8 0C197.3 0 172.7 0 148 0C123.3 0 98.7 0 74 0C49.3 0 24.7 0 12.3 0L0 0Z" fill="#e34c67"></path><path d="M0 84L12.3 81.2C24.7 78.3 49.3 72.7 74 71.3C98.7 70 123.3 73 148 74C172.7 75 197.3 74 221.8 77.3C246.3 80.7 270.7 88.3 295.2 90.8C319.7 93.3 344.3 90.7 369 83.5C393.7 76.3 418.3 64.7 443 63C467.7 61.3 492.3 69.7 517 77.8C541.7 86 566.3 94 591 96.8C615.7 99.7 640.3 97.3 664.8 94.8C689.3 92.3 713.7 89.7 738.2 90.5C762.7 91.3 787.3 95.7 812 96.5C836.7 97.3 861.3 94.7 886 94C910.7 93.3 935.3 94.7 947.7 95.3L960 96L960 0L947.7 0C935.3 0 910.7 0 886 0C861.3 0 836.7 0 812 0C787.3 0 762.7 0 738.2 0C713.7 0 689.3 0 664.8 0C640.3 0 615.7 0 591 0C566.3 0 541.7 0 517 0C492.3 0 467.7 0 443 0C418.3 0 393.7 0 369 0C344.3 0 319.7 0 295.2 0C270.7 0 246.3 0 221.8 0C197.3 0 172.7 0 148 0C123.3 0 98.7 0 74 0C49.3 0 24.7 0 12.3 0L0 0Z" fill="#da3f67"></path><path d="M0 36L12.3 40.2C24.7 44.3 49.3 52.7 74 56.8C98.7 61 123.3 61 148 61.5C172.7 62 197.3 63 221.8 60.5C246.3 58 270.7 52 295.2 47.8C319.7 43.7 344.3 41.3 369 43.3C393.7 45.3 418.3 51.7 443 56C467.7 60.3 492.3 62.7 517 60.3C541.7 58 566.3 51 591 48.3C615.7 45.7 640.3 47.3 664.8 52.8C689.3 58.3 713.7 67.7 738.2 70.2C762.7 72.7 787.3 68.3 812 63.8C836.7 59.3 861.3 54.7 886 54.5C910.7 54.3 935.3 58.7 947.7 60.8L960 63L960 0L947.7 0C935.3 0 910.7 0 886 0C861.3 0 836.7 0 812 0C787.3 0 762.7 0 738.2 0C713.7 0 689.3 0 664.8 0C640.3 0 615.7 0 591 0C566.3 0 541.7 0 517 0C492.3 0 467.7 0 443 0C418.3 0 393.7 0 369 0C344.3 0 319.7 0 295.2 0C270.7 0 246.3 0 221.8 0C197.3 0 172.7 0 148 0C123.3 0 98.7 0 74 0C49.3 0 24.7 0 12.3 0L0 0Z" fill="#d03267"></path><path d="M0 39L12.3 38.5C24.7 38 49.3 37 74 34.8C98.7 32.7 123.3 29.3 148 27.3C172.7 25.3 197.3 24.7 221.8 27.2C246.3 29.7 270.7 35.3 295.2 37.5C319.7 39.7 344.3 38.3 369 39C393.7 39.7 418.3 42.3 443 44.2C467.7 46 492.3 47 517 42.5C541.7 38 566.3 28 591 26C615.7 24 640.3 30 664.8 31C689.3 32 713.7 28 738.2 29.3C762.7 30.7 787.3 37.3 812 40.8C836.7 44.3 861.3 44.7 886 43.7C910.7 42.7 935.3 40.3 947.7 39.2L960 38L960 0L947.7 0C935.3 0 910.7 0 886 0C861.3 0 836.7 0 812 0C787.3 0 762.7 0 738.2 0C713.7 0 689.3 0 664.8 0C640.3 0 615.7 0 591 0C566.3 0 541.7 0 517 0C492.3 0 467.7 0 443 0C418.3 0 393.7 0 369 0C344.3 0 319.7 0 295.2 0C270.7 0 246.3 0 221.8 0C197.3 0 172.7 0 148 0C123.3 0 98.7 0 74 0C49.3 0 24.7 0 12.3 0L0 0Z" fill="#c62368"></path></svg>